Coordinates
version=1
nRows=12
nColumns=24
inDegrees=yes

Units are S.I. units (second, meters, Newtons, ...)
Angles are in degrees.

endheader
time	pelvis_tilt	pelvis_list	pelvis_rotation	pelvis_tx	pelvis_ty	pelvis_tz	hip_flexion_r	hip_adduction_r	hip_rotation_r	knee_angle_r	ankle_angle_r	subtalar_angle_r	mtp_angle_r	hip_flexion_l	hip_adduction_l	hip_rotation_l	knee_angle_l	ankle_angle_l	subtalar_angle_l	mtp_angle_l	lumbar_extension	lumbar_bending	lumbar_rotation
      5.06000000	     -4.47352531	      2.35169095	      0.83055440	      0.08916768	      0.98643257	     -0.01386652	     13.22187805	    -11.74499614	     -5.84261759	    -59.79876940	     -8.32476653	      0.00000000	      0.00000000	     13.90698633	      1.66442222	    -10.20456415	    -10.93951872	     -0.01596706	      0.00000000	      0.00000000	     -2.22547938	     -3.12667153	      8.55455632
      5.07000000	     -4.42751687	      2.14042915	      0.85233804	      0.08854960	      0.98737366	     -0.01513335	     14.12286007	    -11.48240599	     -5.84065840	    -60.25291944	     -7.00989039	      0.00000000	      0.00000000	     13.29439812	      1.54271670	    -10.17488742	    -10.73702916	      0.24806239	      0.00000000	      0.00000000	     -2.29575142	     -2.88697498	      8.10659200
      5.08000000	     -4.40320732	      1.91771694	      0.87942320	      0.08793267	      0.98826958	     -0.01641655	     15.02222725	    -11.20577020	     -5.88874035	    -60.48519945	     -5.79666209	      0.00000000	      0.00000000	     12.65375492	      1.41367414	    -10.12036383	    -10.42878602	      0.51642993	      0.00000000	      0.00000000	     -2.33793240	     -2.61448946	      7.66818307
      5.09000000	     -4.38906788	      1.69768983	      0.93947805	      0.08720710	      0.98908078	     -0.01767267	     15.89990077	    -10.92678709	     -5.99999303	    -60.52642269	     -4.49375586	      0.00000000	      0.00000000	     12.05690128	      1.28325844	    -10.09427834	    -10.16549600	      0.71982087	      0.00000000	      0.00000000	     -2.38807482	     -2.35158851	      7.20881891
      5.10000000	     -4.39162884	      1.48302894	      1.00847782	      0.08644827	      0.98981136	     -0.01892196	     16.76724909	    -10.65855445	     -6.15573605	    -60.36515751	     -3.32532574	      0.00000000	      0.00000000	     11.46077995	      1.16117979	    -10.07581459	     -9.85742792	      0.91926373	      0.00000000	      0.00000000	     -2.42483384	     -2.09017653	      6.75722307
      5.11000000	     -4.41389332	      1.29415446	      1.07024413	      0.08569344	      0.99046340	     -0.02017213	     17.63442197	    -10.43636046	     -6.36218058	    -60.00468256	     -2.42030590	      0.00000000	      0.00000000	     10.85852470	      1.06886625	    -10.14034336	     -9.48725003	      1.15376010	      0.00000000	      0.00000000	     -2.44037646	     -1.85069047	      6.33464313
      5.12000000	     -4.44376535	      1.10033613	      1.13580635	      0.08490390	      0.99104288	     -0.02133063	     18.46102927	    -10.18384699	     -6.56381380	    -59.44349642	     -1.37973669	      0.00000000	      0.00000000	     10.27759638	      0.95887611	    -10.14546628	     -9.14130570	      1.31681160	      0.00000000	      0.00000000	     -2.45273635	     -1.61065908	      5.93077232
      5.13000000	     -4.45577978	      1.00901450	      1.19644120	      0.08392414	      0.99157375	     -0.02243464	     19.27693749	    -10.03338395	     -6.69820655	    -58.71020907	     -0.84937835	      0.00000000	      0.00000000	      9.75567936	      0.94672633	    -10.24056122	     -8.94493005	      1.46934509	      0.00000000	      0.00000000	     -2.52987807	     -1.49327160	      5.53170026
      5.14000000	     -4.50602416	      0.73491999	      1.28294607	      0.08314859	      0.99195984	     -0.02351932	     20.01197164	     -9.71415966	     -7.04482825	    -57.76316190	      0.36237056	      0.00000000	      0.00000000	      9.14931893	      0.74912904	    -10.14147187	     -8.47376911	      1.56681320	      0.00000000	      0.00000000	     -2.52230928	     -1.15552939	      5.18071017
      5.15000000	     -4.55218005	      0.69826886	      1.32185663	      0.08220796	      0.99230859	     -0.02457401	     20.76643060	     -9.64117421	     -7.24079876	    -56.62295987	      0.70084351	      0.00000000	      0.00000000	      8.65552372	      0.79368349	    -10.26386844	     -8.27021231	      1.75426385	      0.00000000	      0.00000000	     -2.56037640	     -1.08744121	      4.88692276
      5.16000000	     -4.59083002	      0.42233154	      1.39715206	      0.08145906	      0.99259017	     -0.02548043	     21.41593512	     -9.32549188	     -7.62725784	    -55.32678224	      1.39004488	      0.00000000	      0.00000000	      8.02683542	      0.57809174	    -10.17186108	     -7.78150191	      1.83847205	      0.00000000	      0.00000000	     -2.56739153	     -0.75175154	      4.55809672
      5.17000000	     -4.63977720	      0.30078732	      1.44174070	      0.08064902	      0.99279163	     -0.02637031	     22.05161667	     -9.18268100	     -7.96090002	    -53.84085149	      1.61567147	      0.00000000	      0.00000000	      7.47096422	      0.52587196	    -10.21548361	     -7.43945500	      2.00900342	      0.00000000	      0.00000000	     -2.58086846	     -0.58547368	      4.28110223
